<?xml version="1.0" encoding="utf-8"?>
<!-- Generator: Adobe Illustrator 16.0.0, SVG Export Plug-In . SVG Version: 6.00 Build 0)  -->
<!DOCTYPE svg PUBLIC "-//W3C//DTD SVG 1.1//EN" "http://www.w3.org/Graphics/SVG/1.1/DTD/svg11.dtd">
<svg version="1.1" id="Layer_1" xmlns="http://www.w3.org/2000/svg" xmlns:xlink="http://www.w3.org/1999/xlink" x="0px" y="0px" width="380px" height="550px" viewBox="290 5 380 550" enable-background="new 290 5 380 550" xml:space="preserve">
<g id="Layer_1_1_">
</g>
<g id="low_poly">
	<g>
		<g>
			<polygon fill="none" stroke="#000000" stroke-miterlimit="10" points="458.28,111.217 424.208,115.002 401.494,130.146
				390.135,137.718 374.992,141.503 367.421,160.432 356.064,190.718 344.707,221.005 340.919,239.934 337.134,251.292
				329.563,255.077 329.563,274.007 337.134,274.007 337.134,311.864 337.134,349.724 348.492,368.652 352.278,391.367
				359.85,398.938 371.207,421.652 378.778,444.366 397.708,459.511 412.851,478.439 435.566,489.796 454.495,504.939
				480.996,497.369 496.139,501.154 518.854,497.369 526.425,482.226 549.14,470.867 556.712,463.297 568.068,455.725
				575.642,444.366 590.783,429.224 598.355,402.723 613.498,383.794 617.286,357.294 621.07,345.936 621.07,315.65 621.07,292.936
				624.856,281.577 628.641,274.007 628.641,262.649 621.07,258.863 617.286,251.292 617.286,239.934 609.712,224.791
				598.355,171.79 575.642,149.076 556.712,126.36 522.64,115.002 499.925,118.79 477.21,118.79 			"/>
			<path fill="none" stroke="#000000" stroke-miterlimit="10" d="M480.996,9"/>
			<polyline fill="none" stroke="#000000" stroke-miterlimit="10" points="480.996,9 496.139,9 511.282,12.786 518.854,20.358
				537.783,24.145 556.712,35.501 583.212,50.645 594.571,62.001 602.142,62.001 617.286,77.145 628.641,103.645 636.215,115.002
				639.999,122.574 655.142,133.932 643.785,152.861 655.142,164.218 666.5,175.575 655.142,183.147 658.929,194.504
				662.714,194.504 662.714,205.862 655.142,213.434 658.929,228.576 651.355,243.721 658.929,255.077 643.785,266.435
				643.785,281.577 636.215,292.936 628.641,304.294 624.856,311.864 628.641,315.65 628.641,327.009 628.641,334.579
				632.427,345.936 628.641,353.509 624.856,361.08 632.427,368.652 624.856,376.224 624.856,391.367 624.856,402.723
				617.286,406.509 621.07,414.081 609.712,433.012 605.927,440.582 594.571,451.94 583.212,463.297 579.427,474.655
				569.331,482.226 564.283,501.154 545.354,527.654 522.64,539.013 496.139,542.799 480.996,550.369 473.425,546.583
				469.639,550.369 462.066,550.369 458.28,542.799 454.495,542.799 446.924,539.013 435.566,539.013 424.208,535.229
				420.423,527.654 412.851,523.869 405.28,520.084 401.494,512.511 390.135,508.726 386.351,501.154 386.351,493.584
				382.564,482.226 374.992,474.655 367.421,470.867 367.421,459.511 363.636,448.152 352.278,433.012 344.707,417.867
				337.134,398.938 337.134,391.367 333.351,383.794 329.563,372.438 329.563,361.08 333.351,353.509 329.563,338.365
				329.563,327.009 329.563,315.65 337.134,311.864 329.563,304.294 329.563,296.723 321.992,281.577 318.207,270.221
				318.207,262.649 314.42,251.292 310.634,247.507 303.064,239.934 310.634,232.362 306.849,221.005 303.064,209.647
				295.491,198.29 295.491,183.147 295.491,175.575 306.849,164.218 306.849,149.076 306.849,141.503 306.849,126.36
				325.777,115.002 329.563,103.645 340.919,96.074 344.707,80.93 344.707,69.573 356.064,62.001 371.207,58.215 390.135,35.501
				393.922,39.287 401.494,27.929 416.637,20.358 435.566,20.358 450.71,20.358 454.495,12.786 469.639,9 480.996,9 			"/>
			<polygon fill="none" stroke="#000000" stroke-miterlimit="10" points="382.564,247.507 367.421,247.507 397.708,224.791
				416.637,224.791 435.566,228.576 446.924,236.148 450.71,243.721 439.353,239.934 424.208,236.148 409.065,236.148
				397.708,239.934 			"/>
			<g>
				<polyline fill="none" stroke="#000000" stroke-miterlimit="10" points="367.421,247.507 340.919,251.292 337.134,251.292
					329.563,255.077 329.563,274.007 337.134,274.007 340.919,277.792 344.707,296.723 352.278,311.864 363.636,319.438
					374.992,323.221 409.065,327.009 431.78,327.009 446.924,323.221 458.28,315.65 473.425,277.792 488.567,277.792
					503.712,315.65 511.282,323.221 533.997,327.009 560.498,327.009 598.355,323.221 605.927,315.65 609.712,308.08
					617.286,285.363 621.07,281.577 624.856,281.577 628.641,274.007 628.641,262.649 621.07,258.863 602.142,255.077
					579.427,251.292 556.712,251.292 530.21,251.292 518.854,255.077 496.139,258.863 488.567,258.863 465.852,258.863
					454.495,255.077 443.138,251.292 427.994,247.507 412.851,247.507 382.564,247.507 				"/>
			</g>
			<polygon fill="none" stroke="#000000" stroke-miterlimit="10" points="352.278,258.863 363.636,255.077 390.135,251.292
				412.851,251.292 431.78,255.077 450.71,262.649 458.28,270.221 462.066,285.363 454.495,304.294 446.924,315.65 435.566,319.438
				420.423,323.221 409.065,323.221 374.992,319.438 359.85,311.864 352.278,292.936 			"/>
			<polygon fill="none" stroke="#000000" stroke-miterlimit="10" points="609.712,265.84 598.61,261.529 572.395,256.246
				549.728,254.783 530.606,257.143 511.255,263.083 503.237,269.754 498.536,283.825 504.938,302.21 511.8,313.433
				522.902,317.744 537.784,322.297 549.117,323.028 583.35,321.645 598.923,315.459 607.635,298.053 			"/>
			<path fill="none" stroke="#000000" stroke-miterlimit="10" d="M568.068,251.292"/>
			<polygon fill="none" stroke="#000000" stroke-miterlimit="10" points="568.068,251.292 586.997,251.292 579.427,239.934
				564.283,232.362 537.783,228.576 522.64,232.362 507.495,243.721 505.814,246.664 507.495,251.292 522.64,243.721
				533.997,243.721 549.14,243.721 			"/>
			<polyline fill="none" stroke="#000000" stroke-miterlimit="10" points="446.924,323.221 435.566,330.795 427.994,342.149
				427.994,357.294 431.78,361.08 454.495,364.864 465.852,364.864 469.64,361.08 473.425,361.08 477.21,364.864 484.78,364.864
				488.567,361.08 492.354,361.08 496.139,364.864 503.712,364.864 511.282,364.864 526.425,361.08 530.21,349.724 526.425,338.365
				518.854,330.795 511.282,323.221 			"/>
			<polygon fill="none" stroke="#000000" stroke-miterlimit="10" points="469.64,361.08 454.495,349.724 443.138,349.724
				439.353,353.509 446.924,357.294 			"/>
			<polygon fill="none" stroke="#000000" stroke-miterlimit="10" points="492.354,361.08 499.925,353.509 511.282,353.509
				515.069,357.294 507.496,361.08 			"/>
			<g>
				<polyline fill="none" stroke="#000000" stroke-miterlimit="10" points="431.78,285.363 420.423,289.148 405.28,289.148
					386.351,285.363 378.778,281.577 				"/>
				<polyline fill="none" stroke="#000000" stroke-miterlimit="10" points="443.138,286.878 431.78,285.363 420.423,274.007
					412.852,270.221 401.494,270.221 390.135,274.007 378.778,281.577 371.208,283.957 				"/>
				<polygon fill="none" stroke="#000000" stroke-miterlimit="10" points="371.208,283.957 378.778,275.197 390.135,269.355
					401.494,266.435 416.637,266.435 424.209,269.355 431.78,275.197 439.353,281.037 443.138,286.878 431.78,293.693
					424.209,297.1 405.28,300.506 393.922,297.1 382.565,293.693 374.992,286.878 				"/>
			</g>
			<g>
				<polyline fill="none" stroke="#000000" stroke-miterlimit="10" points="575.642,289.148 564.283,292.936 549.141,292.936
					530.21,289.148 522.64,285.363 				"/>
				<polyline fill="none" stroke="#000000" stroke-miterlimit="10" points="586.997,290.663 575.642,289.148 564.283,277.792
					556.712,274.007 545.354,274.007 533.998,277.792 522.64,285.363 515.069,287.744 				"/>
				<polygon fill="none" stroke="#000000" stroke-miterlimit="10" points="515.069,287.744 522.64,278.981 533.998,273.141
					545.354,270.221 560.498,270.221 568.068,273.141 575.642,278.981 583.212,284.822 586.997,290.663 575.642,297.479
					568.068,300.886 549.141,304.294 537.783,300.886 526.425,297.479 518.854,290.663 				"/>
			</g>
			<path fill="none" stroke="#000000" stroke-miterlimit="10" d="M420.423,414.081"/>
			<polygon fill="none" stroke="#000000" stroke-miterlimit="10" points="420.423,414.081 435.566,406.509 454.495,402.723
				465.852,402.723 473.425,406.509 480.996,402.723 496.139,402.723 518.854,410.297 530.21,417.867 533.998,421.652
				522.64,433.012 511.282,440.582 492.354,448.152 462.066,448.152 443.138,440.582 427.994,429.224 			"/>
			<polyline fill="none" stroke="#000000" stroke-miterlimit="10" points="420.423,414.081 427.994,417.867 446.924,421.652
				465.852,421.652 480.996,421.652 496.139,421.652 507.496,421.652 533.998,421.652 			"/>
			<polygon fill="none" stroke="#000000" stroke-miterlimit="10" points="423.577,277.161 421.265,281.577 417.898,285.363
				413.482,286.878 409.065,286.878 405.28,285.363 401.494,281.577 397.708,274.007 401.494,270.221 412.852,270.221
				420.423,274.007 			"/>
			<polyline fill="none" stroke="#000000" stroke-miterlimit="10" points="558.735,279.322 560.275,276.208 561.477,278.031
				563.572,282.957 557.229,288.564 552.303,290.661 549.929,290.652 548.225,290.646 544.128,288.997 540.599,285.939
				538.893,281.17 538.399,276.208 			"/>
		</g>
		<polyline fill="none" stroke="#969696" stroke-miterlimit="10" points="337.134,311.864 337.134,300.506 329.563,296.723
			333.351,290.663 337.134,292.936 337.134,283.471 333.351,286.878 333.351,274.702 329.563,283.434 333.351,286.878
			333.351,290.663 324.833,287.257 329.563,283.434 320.981,278.55 329.563,274.007 318.207,262.649 329.563,255.077
			314.42,251.292 322.794,239.034 329.563,255.077 341.628,236.396 322.794,239.034 310.634,232.362 306.849,221.005
			317.124,219.303 329.568,228.576 322.794,239.034 329.568,228.576 343.499,227.043 335.27,210.23 318.257,217.035
			303.064,209.647 314.289,199.275 318.257,217.035 314.289,199.275 296.641,183.193 329.568,184.514 306.849,164.218
			313.722,156.205 306.849,147.632 319.495,147.632 315.989,124.766 309.505,124.766 329.568,121.773 325.777,115.002
			352.281,133.519 338.104,114.744 348.878,107.597 340.919,96.074 338.104,114.744 329.563,103.645 		"/>
		<polyline fill="none" stroke="#969696" stroke-miterlimit="10" points="450.714,42.388 469.639,9 479.106,48.625 490.069,9
			509.349,48.625 518.854,20.358 526.359,44.089 550.99,32.068 549.144,58.832 568.073,41.993 568.32,83.214 580.093,48.861
			595.538,85.258 623.775,92.287 628.646,117.722 639.999,122.574 607.445,150.125 655.142,133.932 623.89,160.331 643.785,152.861
			643.735,190.543 655.142,183.147 628.646,209.096 658.929,194.504 631.827,228.286 655.142,213.434 634.096,243.03
			651.355,243.721 628.641,262.649 643.785,266.435 624.856,281.577 643.785,281.577 621.07,292.936 624.856,311.864
			621.07,327.007 628.641,315.65 621.07,334.979 628.641,334.579 621.07,345.936 632.427,345.936 616.744,361.08 624.856,361.08
			613.498,383.794 632.427,368.652 610.975,386.948 624.856,402.723 598.355,402.723 617.286,406.509 593.274,420.506
			605.927,440.582 579.427,440.582 583.212,463.297 568.068,455.725 569.331,482.226 551.31,468.698 549.144,486.377
			569.331,482.226 549.144,486.377 564.283,501.154 541.103,504.939 545.354,527.654 522.644,521.532 515.072,540.094
			492.358,526.636 486.634,547.549 477.215,524.368 473.425,546.583 459.449,523.234 458.28,542.799 446.975,522.099
			420.423,527.654 428,507.356 405.28,520.084 414.086,493.748 390.135,508.726 400.479,479.005 386.351,493.584 386.351,468.23
			367.421,470.867 374.961,451.787 363.636,448.152 373.422,428.298 350.944,430.342 356.816,414.079 343.191,414.079
			352.278,391.367 337.134,391.367 342.641,376.938 329.563,370.318 341.677,357.294 332.446,349.892 337.134,334.979
			329.568,329.875 337.134,320.802 329.563,315.65 		"/>
		<polyline fill="none" stroke="#969696" stroke-miterlimit="10" points="341.677,357.294 342.641,376.938 350.829,382.662 		"/>
		<polyline fill="none" stroke="#969696" stroke-miterlimit="10" points="352.278,391.367 356.816,414.079 373.422,428.298
			374.961,451.787 385.465,449.717 386.351,468.23 401.107,463.759 400.479,479.005 410.646,475.685 414.086,493.748 428,486.013
			428,507.356 443.142,511.893 443.142,495.856 446.975,522.099 454.495,504.939 459.449,523.234 469.643,516.996 469.643,500.612
			492.358,526.636 496.139,501.154 506.513,519.265 518.854,497.369 530.214,501.688 534.001,478.438 549.144,484.107
			541.103,504.939 530.214,501.688 522.644,521.532 518.854,497.369 515.072,540.094 505.359,517.25 		"/>
		<line fill="none" stroke="#969696" stroke-miterlimit="10" x1="477.215" y1="524.368" x2="469.742" y2="516.896"/>
		<polyline fill="none" stroke="#969696" stroke-miterlimit="10" points="335.27,210.23 351.354,203.283 329.563,197.832
			356.064,190.718 339.725,175.003 362.475,173.627 346.019,156.534 369.508,155.213 358.963,124.725 374.992,141.503
			377.944,118.056 390.948,137.176 395.901,101.64 407.938,125.85 411.547,107.597 424.208,115.002 425.656,94.457 438.958,113.363
			445.922,84.453 458.28,111.217 474.651,80.605 477.192,116.304 493.121,80.605 501.949,118.452 517.232,80.605 522.64,115.002
			546.475,84.709 540.236,120.869 552.118,109.847 556.712,126.36 568.32,107.597 568.32,138.576 586.997,126.264 583.896,157.332
			600.087,134.815 592.233,165.667 611.373,165.51 601.883,188.247 617.786,186.288 605.474,205.003 617.786,210.23
			609.038,221.639 622.916,221.639 614.964,232.502 622.916,239.934 617.286,251.292 636.766,255.878 634.096,243.03
			622.916,239.934 631.827,228.286 622.916,221.639 628.646,209.096 617.786,210.23 628.641,195.524 617.786,186.288
			632.664,172.694 611.373,165.51 623.89,160.331 616.735,146.971 603.94,165.572 596.189,150.125 607.445,150.125 628.646,117.722
			600.087,134.815 600.6,107.597 582.9,106.513 580.592,82.658 560.841,93.832 550.325,67.266 531.342,69.832 521.852,55.43
			494.245,62.649 472.856,56.492 454.388,71.114 423.862,69.063 408.472,82.914 373.072,97.279 368.711,113.183 344.707,123.488
			"/>
		<polyline fill="none" stroke="#969696" stroke-miterlimit="10" points="314.289,199.275 329.563,197.832 329.568,184.514
			339.725,175.003 313.722,156.205 346.019,156.534 319.495,147.632 336.647,139.091 329.568,121.773 336.647,139.091
			352.281,133.519 369.04,153.854 		"/>
		<line fill="none" stroke="#000000" stroke-miterlimit="10" x1="303.064" y1="209.647" x2="310.634" y2="232.362"/>
		<polyline fill="none" stroke="#969696" stroke-miterlimit="10" points="358.963,124.725 357.136,118.152 376.772,127.37
			368.711,113.183 377.944,118.056 377.944,95.302 395.901,101.64 400.662,86.084 411.547,107.597 409.194,82.265 425.146,92.919
			423.862,69.063 445.922,84.453 454.388,71.114 474.651,80.605 472.856,56.492 493.121,80.605 494.245,62.649 517.232,80.605
			521.852,55.43 535.107,99.156 538.817,68.821 546.475,84.709 553.481,75.241 552.118,109.847 560.841,93.832 568.32,107.597
			582.9,106.513 586.997,126.264 600.277,124.766 		"/>
		<polyline fill="none" stroke="#969696" stroke-miterlimit="10" points="632.664,172.694 643.759,172.694 628.641,195.524
			643.735,190.543 		"/>
		<polyline fill="none" stroke="#969696" stroke-miterlimit="10" points="628.646,117.722 600.6,107.597 623.775,92.287
			583.762,96.074 595.538,85.258 580.592,82.658 580.093,48.861 		"/>
		<line fill="none" stroke="#969696" stroke-miterlimit="10" x1="568.32" y1="83.214" x2="566.609" y2="90.569"/>
		<polyline fill="none" stroke="#969696" stroke-miterlimit="10" points="538.817,68.821 539.759,39.798 549.217,57.776
			546.987,67.716 568.169,58.265 		"/>
		<line fill="none" stroke="#969696" stroke-miterlimit="10" x1="521.852" y1="55.43" x2="526.359" y2="44.089"/>
		<polyline fill="none" stroke="#969696" stroke-miterlimit="10" points="509.349,48.625 509.349,58.699 483.163,33.958
			483.163,58.699 479.106,48.625 472.856,56.492 458.872,27.994 454.388,71.114 433.463,48.861 431.783,63.936 431.783,68.821
			418.622,55.43 409.194,82.265 395.941,62.392 395.153,88.318 384.602,58.215 371.207,58.215 381.766,85.258 384.481,92.65
			358.724,78.111 368.711,113.183 357.383,93.832 357.383,117.236 348.878,107.597 344.707,69.573 357.383,93.832 360.186,60.971
			381.766,85.258 371.207,58.215 384.602,58.215 391.122,38.009 395.941,62.392 401.494,27.929 418.622,55.43 416.639,23.393
			431.783,63.936 434.499,39.553 450.714,42.388 450.71,20.358 434.499,39.553 416.637,20.358 		"/>
		<polyline fill="none" stroke="#969696" stroke-miterlimit="10" points="375.668,241.32 391.393,243.092 390.819,229.958
			403.328,238.061 407.982,224.791 418.622,235.541 427.195,226.903 433.267,238.413 446.124,238.015 442.003,239.931
			437.816,230.077 425.994,236.148 419.617,225.387 409.065,236.148 397.708,224.791 395.941,239.934 384.033,236.148
			387.936,244.819 369.04,246.293 350.829,207.395 396.13,224.791 362.475,173.627 435.566,228.576 390.948,137.176
			446.124,177.154 477.21,118.79 511.616,176.397 556.712,126.36 541.695,229.135 598.355,171.79 579.427,239.934 613.499,232.362
			588.544,251.292 		"/>
		<polyline fill="none" stroke="#969696" stroke-miterlimit="10" points="361.229,255.878 349.2,250.108 352.278,258.863
			341.381,262.587 352.278,270.221 341.677,279.686 350.829,283.471 344.707,296.723 355.307,300.506 352.278,311.864
			361.604,312.741 367.421,320.698 374.992,319.438 382.539,324.061 391.973,321.72 397.708,325.746 409.065,323.221
			417.678,327.009 427.994,321.327 437.224,325.646 444.572,316.433 450.712,320.696 450.712,309.969 461.309,308.078
			457.229,297.461 467.366,292.936 462.066,281.577 473.425,277.792 465.12,267.879 469.64,258.863 451.741,263.68 449.242,253.326
			439.353,258.106 431.78,248.221 420.423,252.805 412.851,247.507 401.044,251.292 395.752,247.736 385.545,251.292
			376.095,247.736 358.941,254.783 		"/>
		<polyline fill="none" stroke="#969696" stroke-miterlimit="10" points="349.2,250.108 341.381,262.587 337.134,251.292
			329.563,262.587 341.381,262.587 329.563,272.794 350.829,272.794 		"/>
		<polyline fill="none" stroke="#969696" stroke-miterlimit="10" points="403.328,238.061 399.912,247.507 425.994,236.148
			431.78,248.221 450.71,243.721 464.653,258.464 480.759,211.554 503.237,257.68 507.495,251.292 512.544,239.934 522.64,243.721
			522.64,232.362 536.755,243.03 541.695,229.135 549.14,243.721 564.283,232.362 564.283,247.866 579.427,239.934 577.203,249.922
			569.424,234.934 557.169,246.293 551.033,231.588 543.462,243.03 534.298,229.449 528.438,243.171 517.592,236.148
			515.069,247.506 507.495,243.721 		"/>
		<polyline fill="none" stroke="#969696" stroke-miterlimit="10" points="507.495,251.292 522.64,253.815 534.298,244.819
			549.141,251.292 557.169,246.293 		"/>
		<polyline fill="none" stroke="#969696" stroke-miterlimit="10" points="446.124,177.154 480.759,211.554 511.616,176.397 		"/>
		<polyline fill="none" stroke="#969696" stroke-miterlimit="10" points="378.016,442.075 427.994,429.224 427.994,483.541
			477.21,448.152 480.996,497.369 494.245,448.152 530.21,480.331 522.64,433.012 561.721,456.814 		"/>
		<polyline fill="none" stroke="#969696" stroke-miterlimit="10" points="352.278,258.863 376.531,276.208 384.629,252.078
			397.708,267.408 419.521,253.815 425.33,270.221 451.741,263.68 443.138,286.878 457.229,297.461 426.136,297.461
			427.994,320.136 405.28,300.506 385.851,320.136 382.565,293.693 355.307,300.506 368.159,270.221 		"/>
		<polyline fill="none" stroke="#969696" stroke-miterlimit="10" points="503.237,269.754 507.495,256.971 516.568,261.452
			522.027,253.713 530.606,257.143 538.399,252.078 541.598,256.392 549.141,251.292 555.98,255.186 564.769,252.078
			575.878,256.947 581.322,251.292 588.172,258.464 595.878,254.783 603.68,263.499 583.212,284.822 575.878,256.947
			560.498,270.221 541.598,256.392 536.044,272.073 510.8,265.822 515.069,287.744 505.556,298.109 532.332,299.25 533.497,319.784
			555.712,303.109 573.78,319.784 579.427,295.206 606.405,300.506 591.479,276.208 		"/>
		<polyline fill="none" stroke="#969696" stroke-miterlimit="10" points="603.68,263.499 615.08,257.665 617,268.068
			628.641,262.649 618.997,274.007 624.856,281.577 		"/>
		<polyline fill="none" stroke="#969696" stroke-miterlimit="10" points="617,268.068 609.349,271.47 618.997,274.007
			628.641,274.007 		"/>
		<polyline fill="none" stroke="#969696" stroke-miterlimit="10" points="618.997,274.007 608.819,279.686 617.57,283.471
			608.819,290.661 612.892,298.547 606.405,300.506 607.819,311.864 599.414,314.479 598.355,323.221 590.298,318.884
			586.997,324.356 579.427,321.801 572.202,325.837 565.053,323.028 557.169,327.009 551.033,322.95 546.406,327.009
			526.425,361.08 		"/>
		<polyline fill="none" stroke="#969696" stroke-miterlimit="10" points="546.406,327.009 537.784,322.297 530.21,326.377
			526.425,318.822 519.104,324.526 511.8,313.433 503.712,315.65 507.495,306.394 499.169,304.294 503.712,298.686 495.499,295.123
			498.536,283.825 488.567,277.792 		"/>
		<polyline fill="none" stroke="#969696" stroke-miterlimit="10" points="340.955,261.452 340.955,272.794 347.674,302.657
			357.531,306.07 358.625,316.095 368.313,316.095 373.226,322.632 383.354,320.363 390.865,324.986 399.912,322.204
			405.28,327.009 427.994,357.294 		"/>
		<polyline fill="none" stroke="#969696" stroke-miterlimit="10" points="405.28,327.009 417.774,323.221 427.994,327.009
			435.566,319.438 445.746,323.221 446.924,315.65 458.28,315.65 455.148,302.657 464.339,300.506 460.553,289.15 471.152,283.471
			459.778,276.208 474.191,268.128 464.653,258.464 458.28,270.221 465.12,267.879 479.104,258.863 473.425,276.208
			488.567,258.863 488.567,277.792 498.536,258.464 503.237,269.754 488.567,277.792 479.104,258.863 		"/>
		<polyline fill="none" stroke="#969696" stroke-miterlimit="10" points="458.28,270.221 456.902,255.878 445.043,260.382
			439.353,251.292 430.305,254.783 423.577,247.507 412.851,251.292 403.217,248.221 394.655,251.292 386.665,247.507
			375.795,253.341 361.26,248.064 355.874,257.665 		"/>
		<polyline fill="none" stroke="#969696" stroke-miterlimit="10" points="528.628,417.867 524.658,421.652 515.069,410.677
			503.712,421.652 496.139,402.723 483.265,421.652 473.425,406.509 464.27,421.652 454.495,402.723 446.226,421.513
			435.566,406.509 429.649,418.197 423.577,412.505 		"/>
		<polyline fill="none" stroke="#969696" stroke-miterlimit="10" points="424.209,421.652 429.649,418.197 434.145,433.835
			446.226,421.513 452.559,444.349 464.27,421.652 472.491,448.152 483.265,421.652 489.503,448.152 503.712,421.652
			516.352,437.201 524.658,421.652 530.21,425.438 		"/>
		<polyline fill="none" stroke="#969696" stroke-miterlimit="10" points="337.134,308.078 355.881,314.266 337.134,349.724
			382.539,324.061 355.114,391.367 405.28,327.009 378.016,442.075 427.994,357.294 423.577,412.505 458.28,364.864
			473.425,406.509 496.139,364.864 516.6,409.543 526.425,361.08 562.65,459.339 546.406,327.009 595.109,414.081 586.997,324.356
			621.07,345.936 610.975,304.294 602.617,308.078 603.68,317.896 596.596,316.386 592.289,323.827 585.414,320.825
			579.427,325.115 572.712,323.028 565.064,326.551 557.169,323.028 551.033,327.009 546.406,323.221 538.399,327.009
			532.332,320.63 525.018,325.512 519.171,316.295 508.197,320.136 509.94,310.392 502.216,309.373 504.938,302.21 497.652,300.506
			501.242,291.598 492.354,286.105 500.299,278.55 495.475,274.007 493.582,268.068 505.471,263.051 511.255,263.083
			515.069,255.709 525,258.863 530.21,251.292 538.399,255.878 543.132,251.057 549.728,254.783 556.712,251.292 565.296,255.878
			572.712,252.191 581.856,257.665 588.669,252.831 593.437,260.486 603.68,255.385 609.712,265.84 621.07,258.863 		"/>
		<polyline fill="none" stroke="#969696" stroke-miterlimit="10" points="610.975,304.294 607.785,295.697 615.159,291.739
			609.349,285.363 621.07,276.685 		"/>
		<line fill="none" stroke="#969696" stroke-miterlimit="10" x1="407.403" y1="283.156" x2="410.84" y2="284.26"/>
		<g>
			<polyline fill="none" stroke="#969696" stroke-miterlimit="10" points="397.708,274.007 407.078,271.039 405.832,284.26
				420.423,274.007 417.526,284.248 412.852,270.221 405.832,284.26 404.32,279.369 401.494,270.221 395.139,268.068
				388.484,275.107 378.778,275.197 379.835,280.873 378.778,290.286 390.067,286.105 393.922,297.1 405.28,289.148 405.28,300.506
				416.355,289.148 425.453,296.54 431.78,285.363 			"/>
			<polygon fill="none" stroke="#969696" stroke-miterlimit="10" points="399.602,277.792 406.428,276.208 411.477,280.718
				411.477,286.105 416.497,281.158 419.16,279.686 422.994,278.274 414.598,275.46 416.355,272.794 406.428,276.208
				402.092,272.618 			"/>
			<polyline fill="none" stroke="#969696" stroke-miterlimit="10" points="407.078,271.039 410.502,274.463 414.603,278.563
				414.15,283.471 			"/>
			<line fill="none" stroke="#969696" stroke-miterlimit="10" x1="401.142" y1="280.873" x2="404.32" y2="279.369"/>
			<line fill="none" stroke="#969696" stroke-miterlimit="10" x1="409.065" y1="286.105" x2="409.122" y2="283.471"/>
		</g>
		<g>
			<polyline fill="none" stroke="#969696" stroke-miterlimit="10" points="559.661,277.373 555.669,284.718 553.537,288.646
				549.939,275.425 543.531,286.625 542.81,277.365 553.537,288.646 554.741,277.114 562.25,281.266 			"/>
			<polygon fill="none" stroke="#969696" stroke-miterlimit="10" points="559.979,284.18 554.409,281.652 549.315,284.643
				548.39,289.257 544.941,284.158 542.915,282.441 539.876,280.576 547.547,279.608 546.5,277.025 554.409,281.652
				558.735,279.322 			"/>
			<polyline fill="none" stroke="#969696" stroke-miterlimit="10" points="546.554,286.541 547.009,282.266 551.223,279.458
				554.741,277.114 554.741,274.007 			"/>
			<polyline fill="none" stroke="#969696" stroke-miterlimit="10" points="569.633,283.143 559.979,292.936 558.132,286.552
				555.669,284.718 			"/>
			<polyline fill="none" stroke="#969696" stroke-miterlimit="10" points="551.033,285.635 550.453,289.67 550.858,287.402 			"/>
		</g>
		<line fill="none" stroke="#969696" stroke-miterlimit="10" x1="541.892" y1="275.16" x2="542.81" y2="277.365"/>
		<path fill="none" stroke="#969696" stroke-miterlimit="10" d="M554.125,276.263"/>
		<polyline fill="none" stroke="#969696" stroke-miterlimit="10" points="401.494,270.221 407.403,266.435 412.852,270.221
			420.423,268.327 420.423,272.618 430.238,274.007 431.78,285.363 439.353,281.037 		"/>
		<polyline fill="none" stroke="#969696" stroke-miterlimit="10" points="546.406,276.208 545.354,274.007 536.044,272.073
			532.332,278.901 522.64,278.981 522.64,285.363 525.206,296.38 535.715,290.663 545.354,302.657 559.979,292.936 570.091,299.975
			575.642,289.148 579.427,295.206 		"/>
		<polyline fill="none" stroke="#969696" stroke-miterlimit="10" points="545.354,274.007 554.82,270.221 564.283,277.792
			571.028,275.425 575.642,289.148 583.212,284.822 		"/>
		<polyline fill="none" stroke="#969696" stroke-miterlimit="10" points="532.332,278.901 535.715,290.663 539.309,282.335 		"/>
		<polyline fill="none" stroke="#969696" stroke-miterlimit="10" points="388.484,275.107 390.067,286.105 399.602,277.792
			399.912,288.038 		"/>
		<polyline fill="none" stroke="#969696" stroke-miterlimit="10" points="423.577,277.161 423.577,288.646 417.898,285.363
			416.355,289.148 		"/>
		<polyline fill="none" stroke="#969696" stroke-miterlimit="10" points="442.73,355.196 443.138,349.724 447.742,357.294
			448.922,349.724 454.495,357.294 458.28,353.509 462.066,359.817 463.373,357.294 458.28,359.186 454.495,351.061
			450.712,357.294 446.562,349.724 		"/>
		<polyline fill="none" stroke="#969696" stroke-miterlimit="10" points="496.139,357.294 498.536,361.08 503.237,353.509
			505.844,361.08 509.972,353.509 511.832,358.911 512.544,354.77 506.138,353.509 502.009,361.08 498.536,355.196 496.139,361.08
					"/>
		<polyline fill="none" stroke="#969696" stroke-miterlimit="10" points="464.553,364.864 460.388,359.537 458.28,364.864
			447.742,357.294 435.644,361.722 439.353,353.509 429.459,339.955 454.495,349.724 443.138,327.009 474.191,359.817
			460.72,311.864 480.161,362.686 483.163,278.274 488.567,361.08 503.712,315.65 503.237,353.509 518.854,330.795 515.069,357.294
			530.21,349.724 520.236,362.626 515.069,357.294 512.544,364.55 505.844,361.08 496.139,364.864 		"/>
	</g>
</g>
</svg>
