<?xml version="1.0" encoding="utf-8"?>
<!-- Generator: Adobe Illustrator 16.0.0, SVG Export Plug-In . SVG Version: 6.00 Build 0)  -->
<!DOCTYPE svg PUBLIC "-//W3C//DTD SVG 1.1//EN" "http://www.w3.org/Graphics/SVG/1.1/DTD/svg11.dtd">
<svg version="1.1" id="Layer_1" xmlns="http://www.w3.org/2000/svg" xmlns:xlink="http://www.w3.org/1999/xlink" x="0px" y="0px"
	 width="300px" height="300px" viewBox="330 130 300 300" enable-background="new 330 130 300 300" xml:space="preserve">
<g>
	<polygon fill="none" stroke="#FFE1E1" stroke-miterlimit="10" points="366.005,214.765 360.167,208.903 360.167,200.544 
		366.005,194.682 374.365,194.682 380.25,200.544 380.25,208.903 374.365,214.765 	"/>
	<polygon fill="none" stroke="#FFE1E1" stroke-miterlimit="10" points="370.21,215.707 362.4,212.472 359.201,204.749 
		362.436,196.939 370.159,193.74 377.97,196.975 381.168,204.698 377.934,212.508 	"/>
	
		<rect x="363.003" y="197.541" transform="matrix(0.7072 -0.7071 0.7071 0.7072 -36.3446 321.6932)" fill="none" stroke="#FFE1E1" stroke-miterlimit="10" width="14.364" height="14.364"/>
	<rect x="362.866" y="197.619" fill="none" stroke="#FFE1E1" stroke-miterlimit="10" width="14.446" height="14.208"/>
	<polygon fill="none" stroke="#FFE1E1" stroke-miterlimit="10" points="365.21,199.855 366.005,194.566 370.185,197.774 
		374.365,194.566 375.284,199.8 380.342,200.544 377.319,204.724 380.342,208.903 375.182,209.717 374.365,214.881 370.196,211.782 
		366.005,214.881 365.082,209.778 360.027,208.903 363.011,204.786 360.027,200.544 	"/>
	<polygon fill="none" stroke="#FFE1E1" stroke-miterlimit="10" points="370.185,197.774 370.098,211.599 363.011,204.786 	"/>
	<polyline fill="none" stroke="#FFE1E1" stroke-miterlimit="10" points="370.185,197.774 377.134,204.687 370.098,211.599 	"/>
	<polygon fill="none" stroke="#FFE1E1" stroke-miterlimit="10" points="365.21,199.855 375.182,209.717 365.21,209.813 	"/>
	<polyline fill="none" stroke="#FFE1E1" stroke-miterlimit="10" points="365.087,199.855 375.16,199.855 375.16,209.717 
		365.21,209.813 362.866,209.395 362.866,204.786 377.319,204.724 	"/>
	<line fill="none" stroke="#FFE1E1" stroke-miterlimit="10" x1="365.21" y1="209.813" x2="375.182" y2="199.855"/>
</g>
<g>
	<polygon fill="none" stroke="#FFE1E1" stroke-miterlimit="10" points="364.46,177 360.287,163.952 371.212,155.912 
		382.138,164.003 377.964,177 	"/>
	<polygon fill="none" stroke="#FFE1E1" stroke-miterlimit="10" points="376.039,176.393 366.416,176.465 361.542,168.167 
		366.291,159.797 375.914,159.726 380.788,168.023 	"/>
	<circle fill="none" stroke="#FFE1E1" stroke-miterlimit="10" cx="371.195" cy="167.828" r="4.378"/>
	<rect x="367" y="160" fill="none" stroke="#FFE1E1" stroke-miterlimit="10" width="9" height="16"/>
	<polygon fill="none" stroke="#FFE1E1" stroke-miterlimit="10" points="381.917,164.444 373.949,164.236 371.165,156.463 
		368.578,164.236 360.833,164.27 366.903,168.698 364.598,177.203 371.195,172.207 377.834,177.067 375.451,168.687 	"/>
</g>
<g>
	<polygon fill="none" stroke="#FFE1E1" stroke-miterlimit="10" points="460.29,257.718 449.741,257.796 444.398,248.829 
		449.604,239.784 460.154,239.706 465.496,248.673 	"/>
	<polygon fill="none" stroke="#FFE1E1" stroke-miterlimit="10" points="444.197,255 454.825,236.853 465.453,255 	"/>
	<polygon fill="none" stroke="#FFE1E1" stroke-miterlimit="10" points="460,240.049 460,245.531 465.194,248.492 457.499,250.101 
		460.216,257.503 454.827,254.587 449.833,257.506 452.156,250.029 444.722,248.751 449.511,245.514 449.796,239.988 
		454.963,245.471 	"/>
	<polygon fill="none" stroke="#FFE1E1" stroke-miterlimit="10" points="449.511,245.514 454.825,254.587 459.938,245.531 	"/>
</g>
<g>
	<polygon fill="none" stroke="#FFE1E1" stroke-miterlimit="10" points="381.333,242.936 375.844,248.264 377.122,255.806 
		370.357,252.232 363.58,255.778 364.888,248.241 359.421,242.89 366.994,241.806 370.393,234.953 373.765,241.82 	"/>
	<circle fill="none" stroke="#FFE1E1" stroke-miterlimit="10" cx="370.296" cy="246.535" r="5.672"/>
	<polygon fill="none" stroke="#FFE1E1" stroke-miterlimit="10" points="366.994,241.806 370.359,252.02 373.765,241.82 	"/>
	<polygon fill="none" stroke="#FFE1E1" stroke-miterlimit="10" points="364.874,248.204 366.994,241.806 375.575,248.376 	"/>
	<polygon fill="none" stroke="#FFE1E1" stroke-miterlimit="10" points="373.765,241.941 375.844,248.386 365.193,248.02 	"/>
	<polyline fill="none" stroke="#FFE1E1" stroke-miterlimit="10" points="364.874,248.204 370.296,252.208 375.844,248.386 	"/>
	<g>
		<polygon fill="none" stroke="#FFE1E1" stroke-miterlimit="10" points="362.613,245.706 365.777,244.889 363.323,242.571 		"/>
	</g>
	<g>
		<polygon fill="none" stroke="#FFE1E1" stroke-miterlimit="10" points="375.045,245.179 378.271,245.706 376.958,242.596 		"/>
	</g>
	<polygon fill="none" stroke="#FFE1E1" stroke-miterlimit="10" points="364.889,251.826 368,250.25 368,253.586 	"/>
	<polygon fill="none" stroke="#FFE1E1" stroke-miterlimit="10" points="375.916,251.937 373,250.459 373,253.586 	"/>
	<polygon fill="none" stroke="#FFE1E1" stroke-miterlimit="10" points="368.859,238.589 371.923,238.626 370.386,241.551 
		368.859,238.589 	"/>
</g>
<g>
	<polygon fill="none" stroke="#FFE1E1" stroke-miterlimit="10" points="406.852,175.794 401.013,169.932 401.013,161.573 
		406.852,155.711 415.211,155.711 421.096,161.573 421.096,169.932 415.211,175.794 	"/>
	<polygon fill="none" stroke="#FFE1E1" stroke-miterlimit="10" points="411.057,176.736 403.247,173.501 400.048,165.778 
		403.283,157.968 411.006,154.769 418.816,158.003 422.016,165.727 418.78,173.537 	"/>
	
		<rect x="403.85" y="158.569" transform="matrix(0.7071 -0.7071 0.7071 0.7071 3.1804 339.1809)" fill="none" stroke="#FFE1E1" stroke-miterlimit="10" width="14.364" height="14.364"/>
	<rect x="403.712" y="158.648" fill="none" stroke="#FFE1E1" stroke-miterlimit="10" width="14.447" height="14.209"/>
	<polygon fill="none" stroke="#FFE1E1" stroke-miterlimit="10" points="406.057,160.884 406.852,155.595 411.031,158.803 
		415.211,155.595 416.131,160.829 421.188,161.573 418.166,165.752 421.188,169.932 416.028,170.746 415.211,175.91 
		411.043,172.811 406.852,175.91 405.929,170.807 400.874,169.932 403.857,165.815 400.874,161.573 	"/>
	<polygon fill="none" stroke="#FFE1E1" stroke-miterlimit="10" points="411.031,158.803 410.944,172.628 403.857,165.815 	"/>
	<polyline fill="none" stroke="#FFE1E1" stroke-miterlimit="10" points="411.031,158.803 417.981,165.715 410.944,172.628 	"/>
	<polygon fill="none" stroke="#FFE1E1" stroke-miterlimit="10" points="406.057,160.884 416.028,170.746 406.057,170.842 	"/>
	<polyline fill="none" stroke="#FFE1E1" stroke-miterlimit="10" points="405.934,160.884 416.007,160.884 416.007,170.746 
		406.057,170.842 403.712,170.423 403.712,165.815 418.166,165.752 	"/>
	<line fill="none" stroke="#FFE1E1" stroke-miterlimit="10" x1="406.057" y1="170.842" x2="416.028" y2="160.884"/>
</g>
<g>
	<polygon fill="none" stroke="#FFE1E1" stroke-miterlimit="10" points="403.842,214 399.669,200.9 410.595,192.833 421.521,200.964 
		417.347,214 	"/>
	<polygon fill="none" stroke="#FFE1E1" stroke-miterlimit="10" points="415.421,213.288 405.798,213.36 400.924,205.063 
		405.673,196.692 415.296,196.621 420.17,204.918 	"/>
	<circle fill="none" stroke="#FFE1E1" stroke-miterlimit="10" cx="410.578" cy="204.723" r="4.378"/>
	<rect x="406" y="197" fill="none" stroke="#FFE1E1" stroke-miterlimit="10" width="9" height="16"/>
	<polygon fill="none" stroke="#FFE1E1" stroke-miterlimit="10" points="421.3,201.34 413.332,201.131 410.547,193.358 
		407.96,201.131 400.216,201.165 406.286,205.593 403.98,214.098 410.578,209.102 417.217,213.962 414.833,205.582 	"/>
</g>
<g>
	<polygon fill="none" stroke="#FFE1E1" stroke-miterlimit="10" points="460.29,214.19 449.741,214.268 444.398,205.301 
		449.604,196.256 460.154,196.178 465.496,205.145 	"/>
	<polygon fill="none" stroke="#FFE1E1" stroke-miterlimit="10" points="444.197,211 454.825,192.852 465.453,211 	"/>
	<polygon fill="none" stroke="#FFE1E1" stroke-miterlimit="10" points="460,196.521 460,202.003 465.194,204.964 457.499,206.573 
		460.216,213.975 454.827,211.059 449.833,213.978 452.156,206.501 444.722,205.223 449.511,201.986 449.796,196.46 
		454.963,201.943 	"/>
	<polygon fill="none" stroke="#FFE1E1" stroke-miterlimit="10" points="449.511,201.986 454.825,211.059 459.938,202.003 	"/>
</g>
<g>
	<rect x="402" y="237" fill="none" stroke="#FFE1E1" stroke-miterlimit="10" width="18" height="18"/>
	<polygon fill="none" stroke="#FFE1E1" stroke-miterlimit="10" points="403.716,249.782 410.74,236.998 417.948,249.681 	"/>
	<polygon fill="none" stroke="#FFE1E1" stroke-miterlimit="10" points="407.285,255 402,249.797 402,242.188 407.285,237 
		414.682,237 420,242.188 420,249.797 414.682,255 	"/>
	<polygon fill="none" stroke="#FFE1E1" stroke-miterlimit="10" points="402.028,246.193 404.41,239.786 410.752,237.027 
		417.119,239.626 419.802,245.792 417.318,252.116 410.977,254.876 404.711,252.358 	"/>
	<polyline fill="none" stroke="#FFE1E1" stroke-miterlimit="10" points="404.41,239.786 406.727,244.301 402.028,246.193 	"/>
	<polyline fill="none" stroke="#FFE1E1" stroke-miterlimit="10" points="417.119,239.626 414.904,244.325 419.802,245.792 	"/>
	<polyline fill="none" stroke="#FFE1E1" stroke-miterlimit="10" points="404.744,252.372 410.832,249.782 417.318,252.116 	"/>
	<polygon fill="none" stroke="#FFE1E1" stroke-miterlimit="10" points="406.727,244.301 414.904,244.325 410.832,249.782 	"/>
</g>
<g>
	<polygon fill="none" stroke="#FFE1E1" stroke-miterlimit="10" points="465.487,163.342 459.998,168.67 461.275,176.212 
		454.512,172.638 447.733,176.185 449.042,168.647 443.575,163.297 451.148,162.212 454.547,155.359 457.918,162.226 	"/>
	<circle fill="none" stroke="#FFE1E1" stroke-miterlimit="10" cx="454.45" cy="166.941" r="5.672"/>
	<polygon fill="none" stroke="#FFE1E1" stroke-miterlimit="10" points="451.148,162.212 454.513,172.426 457.918,162.226 	"/>
	<polygon fill="none" stroke="#FFE1E1" stroke-miterlimit="10" points="449.028,168.61 451.148,162.212 459.729,168.782 	"/>
	<polygon fill="none" stroke="#FFE1E1" stroke-miterlimit="10" points="457.918,162.348 459.998,168.792 449.347,168.425 	"/>
	<polyline fill="none" stroke="#FFE1E1" stroke-miterlimit="10" points="449.028,168.61 454.45,172.614 459.998,168.792 	"/>
	<g>
		<polygon fill="none" stroke="#FFE1E1" stroke-miterlimit="10" points="446.767,166.112 449.931,165.295 447.477,162.977 		"/>
	</g>
	<g>
		<polygon fill="none" stroke="#FFE1E1" stroke-miterlimit="10" points="459.2,165.585 462.424,166.112 461.112,163.002 		"/>
	</g>
	<polygon fill="none" stroke="#FFE1E1" stroke-miterlimit="10" points="448.889,172.232 452,170.656 452,173.993 	"/>
	<polygon fill="none" stroke="#FFE1E1" stroke-miterlimit="10" points="459.916,172.342 457,170.865 457,173.993 	"/>
	<polygon fill="none" stroke="#FFE1E1" stroke-miterlimit="10" points="453.013,158.996 456.077,159.033 454.54,161.958 
		453.013,158.996 	"/>
</g>
<g>
	<polygon fill="none" stroke="#FFE1E1" stroke-miterlimit="10" points="497.006,214.766 491.166,208.903 491.166,200.544 
		497.006,194.682 505.365,194.682 511.25,200.544 511.25,208.903 505.365,214.766 	"/>
	<polygon fill="none" stroke="#FFE1E1" stroke-miterlimit="10" points="501.211,215.707 493.4,212.473 490.201,204.749 
		493.436,196.939 501.159,193.74 508.97,196.975 512.168,204.698 508.934,212.508 	"/>
	
		<rect x="494.003" y="197.54" transform="matrix(0.7071 -0.7071 0.7071 0.7071 2.0228 414.3292)" fill="none" stroke="#FFE1E1" stroke-miterlimit="10" width="14.364" height="14.364"/>
	<rect x="493.865" y="197.619" fill="none" stroke="#FFE1E1" stroke-miterlimit="10" width="14.447" height="14.209"/>
	<polygon fill="none" stroke="#FFE1E1" stroke-miterlimit="10" points="496.21,199.855 497.006,194.566 501.185,197.773 
		505.365,194.566 506.284,199.8 511.342,200.544 508.319,204.724 511.342,208.903 506.182,209.717 505.365,214.881 501.196,211.782 
		497.006,214.881 496.082,209.778 491.027,208.903 494.011,204.786 491.027,200.544 	"/>
	<polygon fill="none" stroke="#FFE1E1" stroke-miterlimit="10" points="501.185,197.773 501.098,211.6 494.011,204.786 	"/>
	<polyline fill="none" stroke="#FFE1E1" stroke-miterlimit="10" points="501.185,197.773 508.134,204.687 501.098,211.6 	"/>
	<polygon fill="none" stroke="#FFE1E1" stroke-miterlimit="10" points="496.21,199.855 506.182,209.717 496.21,209.813 	"/>
	<polyline fill="none" stroke="#FFE1E1" stroke-miterlimit="10" points="496.088,199.855 506.16,199.855 506.16,209.717 
		496.21,209.813 493.865,209.395 493.865,204.786 508.319,204.724 	"/>
	<line fill="none" stroke="#FFE1E1" stroke-miterlimit="10" x1="496.21" y1="209.813" x2="506.182" y2="199.855"/>
</g>
<g>
	<polygon fill="none" stroke="#FFE1E1" stroke-miterlimit="10" points="495.46,177 491.287,163.952 502.213,155.912 
		513.138,164.003 508.965,177 	"/>
	<polygon fill="none" stroke="#FFE1E1" stroke-miterlimit="10" points="507.039,176.393 497.416,176.465 492.541,168.167 
		497.291,159.797 506.914,159.726 511.787,168.023 	"/>
	<circle fill="none" stroke="#FFE1E1" stroke-miterlimit="10" cx="502.195" cy="167.828" r="4.379"/>
	<rect x="498" y="160" fill="none" stroke="#FFE1E1" stroke-miterlimit="10" width="9" height="16"/>
	<polygon fill="none" stroke="#FFE1E1" stroke-miterlimit="10" points="512.918,164.444 504.949,164.236 502.164,156.463 
		499.578,164.236 491.834,164.27 497.903,168.698 495.598,177.203 502.195,172.207 508.834,177.067 506.451,168.687 	"/>
</g>
<g>
	<polygon fill="none" stroke="#FFE1E1" stroke-miterlimit="10" points="591.29,257.719 580.741,257.796 575.398,248.829 
		580.604,239.783 591.154,239.706 596.496,248.673 	"/>
	<polygon fill="none" stroke="#FFE1E1" stroke-miterlimit="10" points="575.197,255 585.824,236.853 596.453,255 	"/>
	<polygon fill="none" stroke="#FFE1E1" stroke-miterlimit="10" points="591,240.049 591,245.531 596.193,248.492 588.499,250.102 
		591.216,257.504 585.827,254.587 580.832,257.506 583.156,250.029 575.722,248.751 580.511,245.514 580.797,239.988 
		585.963,245.471 	"/>
	<polygon fill="none" stroke="#FFE1E1" stroke-miterlimit="10" points="580.511,245.514 585.824,254.587 590.938,245.531 	"/>
</g>
<g>
	<polygon fill="none" stroke="#FFE1E1" stroke-miterlimit="10" points="512.332,242.936 506.844,248.264 508.121,255.807 
		501.357,252.232 494.58,255.778 495.889,248.241 490.422,242.891 497.994,241.807 501.393,234.953 504.765,241.82 	"/>
	<circle fill="none" stroke="#FFE1E1" stroke-miterlimit="10" cx="501.296" cy="246.535" r="5.672"/>
	<polygon fill="none" stroke="#FFE1E1" stroke-miterlimit="10" points="497.994,241.807 501.359,252.02 504.765,241.82 	"/>
	<polygon fill="none" stroke="#FFE1E1" stroke-miterlimit="10" points="495.873,248.204 497.994,241.807 506.575,248.376 	"/>
	<polygon fill="none" stroke="#FFE1E1" stroke-miterlimit="10" points="504.765,241.941 506.844,248.386 496.193,248.02 	"/>
	<polyline fill="none" stroke="#FFE1E1" stroke-miterlimit="10" points="495.873,248.204 501.296,252.207 506.844,248.386 	"/>
	<g>
		<polygon fill="none" stroke="#FFE1E1" stroke-miterlimit="10" points="493.613,245.705 496.777,244.889 494.322,242.57 		"/>
	</g>
	<g>
		<polygon fill="none" stroke="#FFE1E1" stroke-miterlimit="10" points="506.045,245.18 509.271,245.706 507.958,242.596 		"/>
	</g>
	<polygon fill="none" stroke="#FFE1E1" stroke-miterlimit="10" points="495.889,251.826 499,250.25 499,253.586 	"/>
	<polygon fill="none" stroke="#FFE1E1" stroke-miterlimit="10" points="506.916,251.937 504,250.459 504,253.586 	"/>
	<polygon fill="none" stroke="#FFE1E1" stroke-miterlimit="10" points="499.859,238.59 502.923,238.627 501.387,241.551 
		499.859,238.59 	"/>
</g>
<g>
	<polygon fill="none" stroke="#FFE1E1" stroke-miterlimit="10" points="537.852,175.794 532.014,169.932 532.014,161.573 
		537.852,155.711 546.211,155.711 552.096,161.573 552.096,169.932 546.211,175.794 	"/>
	<polygon fill="none" stroke="#FFE1E1" stroke-miterlimit="10" points="542.057,176.736 534.247,173.501 531.048,165.778 
		534.283,157.968 542.006,154.769 549.816,158.003 553.016,165.727 549.78,173.537 	"/>
	
		<rect x="534.85" y="158.569" transform="matrix(0.7072 -0.7071 0.7071 0.7072 41.5345 431.786)" fill="none" stroke="#FFE1E1" stroke-miterlimit="10" width="14.365" height="14.364"/>
	<rect x="534.713" y="158.648" fill="none" stroke="#FFE1E1" stroke-miterlimit="10" width="14.446" height="14.209"/>
	<polygon fill="none" stroke="#FFE1E1" stroke-miterlimit="10" points="537.057,160.884 537.852,155.595 542.031,158.803 
		546.211,155.595 547.131,160.829 552.188,161.573 549.166,165.752 552.188,169.932 547.028,170.746 546.211,175.91 
		542.043,172.811 537.852,175.91 536.929,170.807 531.874,169.932 534.857,165.815 531.874,161.573 	"/>
	<polygon fill="none" stroke="#FFE1E1" stroke-miterlimit="10" points="542.031,158.803 541.944,172.628 534.857,165.815 	"/>
	<polyline fill="none" stroke="#FFE1E1" stroke-miterlimit="10" points="542.031,158.803 548.98,165.715 541.944,172.628 	"/>
	<polygon fill="none" stroke="#FFE1E1" stroke-miterlimit="10" points="537.057,160.884 547.028,170.746 537.057,170.842 	"/>
	<polyline fill="none" stroke="#FFE1E1" stroke-miterlimit="10" points="536.934,160.884 547.007,160.884 547.007,170.746 
		537.057,170.842 534.713,170.423 534.713,165.815 549.166,165.752 	"/>
	<line fill="none" stroke="#FFE1E1" stroke-miterlimit="10" x1="537.057" y1="170.842" x2="547.028" y2="160.884"/>
</g>
<g>
	<polygon fill="none" stroke="#FFE1E1" stroke-miterlimit="10" points="534.842,214 530.67,200.9 541.596,192.833 552.521,200.964 
		548.347,214 	"/>
	<polygon fill="none" stroke="#FFE1E1" stroke-miterlimit="10" points="546.421,213.288 536.798,213.359 531.924,205.063 
		536.673,196.691 546.296,196.621 551.17,204.918 	"/>
	<circle fill="none" stroke="#FFE1E1" stroke-miterlimit="10" cx="541.578" cy="204.723" r="4.378"/>
	<rect x="537" y="197" fill="none" stroke="#FFE1E1" stroke-miterlimit="10" width="9" height="16"/>
	<polygon fill="none" stroke="#FFE1E1" stroke-miterlimit="10" points="552.3,201.34 544.332,201.131 541.547,193.358 
		538.96,201.131 531.216,201.165 537.286,205.593 534.98,214.098 541.578,209.102 548.217,213.962 545.834,205.582 	"/>
</g>
<g>
	<polygon fill="none" stroke="#FFE1E1" stroke-miterlimit="10" points="591.29,214.19 580.741,214.268 575.398,205.301 
		580.604,196.256 591.154,196.178 596.496,205.145 	"/>
	<polygon fill="none" stroke="#FFE1E1" stroke-miterlimit="10" points="575.197,211 585.824,192.852 596.453,211 	"/>
	<polygon fill="none" stroke="#FFE1E1" stroke-miterlimit="10" points="591,196.521 591,202.004 596.193,204.965 588.499,206.573 
		591.216,213.975 585.827,211.059 580.832,213.979 583.156,206.502 575.722,205.223 580.511,201.986 580.797,196.46 
		585.963,201.943 	"/>
	<polygon fill="none" stroke="#FFE1E1" stroke-miterlimit="10" points="580.511,201.986 585.824,211.059 590.938,202.004 	"/>
</g>
<g>
	<rect x="533" y="237" fill="none" stroke="#FFE1E1" stroke-miterlimit="10" width="18" height="18"/>
	<polygon fill="none" stroke="#FFE1E1" stroke-miterlimit="10" points="534.716,249.781 541.74,236.998 548.948,249.681 	"/>
	<polygon fill="none" stroke="#FFE1E1" stroke-miterlimit="10" points="538.285,255 533,249.797 533,242.188 538.285,237 
		545.682,237 551,242.188 551,249.797 545.682,255 	"/>
	<polygon fill="none" stroke="#FFE1E1" stroke-miterlimit="10" points="533.028,246.193 535.41,239.786 541.752,237.027 
		548.119,239.626 550.802,245.793 548.318,252.116 541.977,254.877 535.711,252.358 	"/>
	<polyline fill="none" stroke="#FFE1E1" stroke-miterlimit="10" points="535.41,239.786 537.727,244.301 533.028,246.193 	"/>
	<polyline fill="none" stroke="#FFE1E1" stroke-miterlimit="10" points="548.119,239.626 545.904,244.325 550.802,245.793 	"/>
	<polyline fill="none" stroke="#FFE1E1" stroke-miterlimit="10" points="535.744,252.371 541.832,249.781 548.318,252.116 	"/>
	<polygon fill="none" stroke="#FFE1E1" stroke-miterlimit="10" points="537.727,244.301 545.904,244.325 541.832,249.781 	"/>
</g>
<g>
	<polygon fill="none" stroke="#FFE1E1" stroke-miterlimit="10" points="596.486,163.342 590.998,168.67 592.275,176.212 
		585.512,172.638 578.733,176.185 580.042,168.647 574.575,163.297 582.148,162.212 585.547,155.359 588.918,162.226 	"/>
	<circle fill="none" stroke="#FFE1E1" stroke-miterlimit="10" cx="585.45" cy="166.941" r="5.672"/>
	<polygon fill="none" stroke="#FFE1E1" stroke-miterlimit="10" points="582.148,162.212 585.513,172.426 588.918,162.226 	"/>
	<polygon fill="none" stroke="#FFE1E1" stroke-miterlimit="10" points="580.027,168.61 582.148,162.212 590.729,168.782 	"/>
	<polygon fill="none" stroke="#FFE1E1" stroke-miterlimit="10" points="588.918,162.348 590.998,168.792 580.347,168.425 	"/>
	<polyline fill="none" stroke="#FFE1E1" stroke-miterlimit="10" points="580.027,168.61 585.45,172.614 590.998,168.792 	"/>
	<g>
		<polygon fill="none" stroke="#FFE1E1" stroke-miterlimit="10" points="577.767,166.112 580.931,165.295 578.477,162.977 		"/>
	</g>
	<g>
		<polygon fill="none" stroke="#FFE1E1" stroke-miterlimit="10" points="590.199,165.585 593.424,166.112 592.111,163.002 		"/>
	</g>
	<polygon fill="none" stroke="#FFE1E1" stroke-miterlimit="10" points="579.889,172.232 583,170.656 583,173.993 	"/>
	<polygon fill="none" stroke="#FFE1E1" stroke-miterlimit="10" points="590.916,172.342 588,170.865 588,173.993 	"/>
	<polygon fill="none" stroke="#FFE1E1" stroke-miterlimit="10" points="584.013,158.996 587.077,159.033 585.54,161.958 
		584.013,158.996 	"/>
</g>
<g>
	<polygon fill="none" stroke="#FFE1E1" stroke-miterlimit="10" points="365.006,344.766 359.166,338.903 359.166,330.544 
		365.006,324.682 373.365,324.682 379.25,330.544 379.25,338.903 373.365,344.766 	"/>
	<polygon fill="none" stroke="#FFE1E1" stroke-miterlimit="10" points="369.211,345.707 361.4,342.473 358.201,334.749 
		361.436,326.939 369.159,323.74 376.97,326.975 380.168,334.698 376.934,342.508 	"/>
	
		<rect x="362.003" y="327.54" transform="matrix(0.7071 -0.7071 0.7071 0.7071 -128.554 359.0673)" fill="none" stroke="#FFE1E1" stroke-miterlimit="10" width="14.364" height="14.364"/>
	<rect x="361.865" y="327.619" fill="none" stroke="#FFE1E1" stroke-miterlimit="10" width="14.447" height="14.209"/>
	<polygon fill="none" stroke="#FFE1E1" stroke-miterlimit="10" points="364.21,329.855 365.006,324.566 369.185,327.773 
		373.365,324.566 374.284,329.8 379.342,330.544 376.319,334.724 379.342,338.903 374.182,339.717 373.365,344.881 369.196,341.782 
		365.006,344.881 364.082,339.778 359.027,338.903 362.011,334.786 359.027,330.544 	"/>
	<polygon fill="none" stroke="#FFE1E1" stroke-miterlimit="10" points="369.185,327.773 369.098,341.6 362.011,334.786 	"/>
	<polyline fill="none" stroke="#FFE1E1" stroke-miterlimit="10" points="369.185,327.773 376.134,334.687 369.098,341.6 	"/>
	<polygon fill="none" stroke="#FFE1E1" stroke-miterlimit="10" points="364.21,329.855 374.182,339.717 364.21,339.813 	"/>
	<polyline fill="none" stroke="#FFE1E1" stroke-miterlimit="10" points="364.088,329.855 374.16,329.855 374.16,339.717 
		364.21,339.813 361.865,339.395 361.865,334.786 376.319,334.724 	"/>
	<line fill="none" stroke="#FFE1E1" stroke-miterlimit="10" x1="364.21" y1="339.813" x2="374.182" y2="329.855"/>
</g>
<g>
	<polygon fill="none" stroke="#FFE1E1" stroke-miterlimit="10" points="363.46,307 359.287,293.952 370.213,285.912 
		381.138,294.003 376.965,307 	"/>
	<polygon fill="none" stroke="#FFE1E1" stroke-miterlimit="10" points="375.039,306.393 365.416,306.465 360.541,298.167 
		365.291,289.797 374.914,289.726 379.787,298.023 	"/>
	<circle fill="none" stroke="#FFE1E1" stroke-miterlimit="10" cx="370.195" cy="297.828" r="4.379"/>
	<rect x="366" y="290" fill="none" stroke="#FFE1E1" stroke-miterlimit="10" width="9" height="16"/>
	<polygon fill="none" stroke="#FFE1E1" stroke-miterlimit="10" points="380.918,294.444 372.949,294.236 370.164,286.463 
		367.578,294.236 359.834,294.27 365.903,298.697 363.598,307.203 370.195,302.207 376.834,307.066 374.451,298.688 	"/>
</g>
<g>
	<polygon fill="none" stroke="#FFE1E1" stroke-miterlimit="10" points="459.29,387.719 448.741,387.796 443.398,378.829 
		448.604,369.783 459.154,369.706 464.496,378.673 	"/>
	<polygon fill="none" stroke="#FFE1E1" stroke-miterlimit="10" points="443.197,385 453.824,366.853 464.453,385 	"/>
	<polygon fill="none" stroke="#FFE1E1" stroke-miterlimit="10" points="459,370.049 459,375.531 464.193,378.492 456.499,380.102 
		459.216,387.504 453.827,384.587 448.832,387.506 451.156,380.029 443.722,378.751 448.511,375.514 448.797,369.988 
		453.963,375.471 	"/>
	<polygon fill="none" stroke="#FFE1E1" stroke-miterlimit="10" points="448.511,375.514 453.824,384.587 458.938,375.531 	"/>
</g>
<g>
	<polygon fill="none" stroke="#FFE1E1" stroke-miterlimit="10" points="380.332,372.936 374.844,378.264 376.121,385.807 
		369.357,382.232 362.58,385.778 363.889,378.241 358.422,372.891 365.994,371.807 369.393,364.953 372.765,371.82 	"/>
	<circle fill="none" stroke="#FFE1E1" stroke-miterlimit="10" cx="369.296" cy="376.535" r="5.672"/>
	<polygon fill="none" stroke="#FFE1E1" stroke-miterlimit="10" points="365.994,371.807 369.359,382.02 372.765,371.82 	"/>
	<polygon fill="none" stroke="#FFE1E1" stroke-miterlimit="10" points="363.873,378.204 365.994,371.807 374.575,378.376 	"/>
	<polygon fill="none" stroke="#FFE1E1" stroke-miterlimit="10" points="372.765,371.941 374.844,378.386 364.193,378.02 	"/>
	<polyline fill="none" stroke="#FFE1E1" stroke-miterlimit="10" points="363.873,378.204 369.296,382.207 374.844,378.386 	"/>
	<g>
		<polygon fill="none" stroke="#FFE1E1" stroke-miterlimit="10" points="361.613,375.705 364.777,374.889 362.322,372.57 		"/>
	</g>
	<g>
		<polygon fill="none" stroke="#FFE1E1" stroke-miterlimit="10" points="374.045,375.18 377.271,375.706 375.958,372.596 		"/>
	</g>
	<polygon fill="none" stroke="#FFE1E1" stroke-miterlimit="10" points="363.889,381.826 367,380.25 367,383.586 	"/>
	<polygon fill="none" stroke="#FFE1E1" stroke-miterlimit="10" points="374.916,381.937 372,380.459 372,383.586 	"/>
	<polygon fill="none" stroke="#FFE1E1" stroke-miterlimit="10" points="367.859,368.59 370.923,368.627 369.387,371.551 
		367.859,368.59 	"/>
</g>
<g>
	<polygon fill="none" stroke="#FFE1E1" stroke-miterlimit="10" points="405.852,305.794 400.014,299.932 400.014,291.572 
		405.852,285.711 414.211,285.711 420.096,291.572 420.096,299.932 414.211,305.794 	"/>
	<polygon fill="none" stroke="#FFE1E1" stroke-miterlimit="10" points="410.057,306.736 402.247,303.502 399.048,295.777 
		402.283,287.968 410.006,284.769 417.816,288.004 421.016,295.727 417.78,303.537 	"/>
	
		<rect x="402.85" y="288.57" transform="matrix(0.7072 -0.707 0.707 0.7072 -89.04 376.5122)" fill="none" stroke="#FFE1E1" stroke-miterlimit="10" width="14.364" height="14.364"/>
	<rect x="402.713" y="288.648" fill="none" stroke="#FFE1E1" stroke-miterlimit="10" width="14.446" height="14.209"/>
	<polygon fill="none" stroke="#FFE1E1" stroke-miterlimit="10" points="405.057,290.884 405.852,285.595 410.031,288.803 
		414.211,285.595 415.131,290.828 420.188,291.572 417.166,295.752 420.188,299.932 415.028,300.746 414.211,305.91 
		410.043,302.811 405.852,305.91 404.929,300.807 399.874,299.932 402.857,295.814 399.874,291.572 	"/>
	<polygon fill="none" stroke="#FFE1E1" stroke-miterlimit="10" points="410.031,288.803 409.944,302.628 402.857,295.814 	"/>
	<polyline fill="none" stroke="#FFE1E1" stroke-miterlimit="10" points="410.031,288.803 416.98,295.715 409.944,302.628 	"/>
	<polygon fill="none" stroke="#FFE1E1" stroke-miterlimit="10" points="405.057,290.884 415.028,300.746 405.057,300.842 	"/>
	<polyline fill="none" stroke="#FFE1E1" stroke-miterlimit="10" points="404.934,290.884 415.007,290.884 415.007,300.746 
		405.057,300.842 402.713,300.424 402.713,295.814 417.166,295.752 	"/>
	<line fill="none" stroke="#FFE1E1" stroke-miterlimit="10" x1="405.057" y1="300.842" x2="415.028" y2="290.884"/>
</g>
<g>
	<polygon fill="none" stroke="#FFE1E1" stroke-miterlimit="10" points="402.842,344 398.67,330.9 409.596,322.833 420.521,330.964 
		416.347,344 	"/>
	<polygon fill="none" stroke="#FFE1E1" stroke-miterlimit="10" points="414.421,343.288 404.798,343.359 399.924,335.063 
		404.673,326.691 414.296,326.621 419.17,334.918 	"/>
	<circle fill="none" stroke="#FFE1E1" stroke-miterlimit="10" cx="409.578" cy="334.723" r="4.378"/>
	<rect x="405" y="327" fill="none" stroke="#FFE1E1" stroke-miterlimit="10" width="9" height="16"/>
	<polygon fill="none" stroke="#FFE1E1" stroke-miterlimit="10" points="420.3,331.34 412.332,331.131 409.547,323.358 
		406.96,331.131 399.216,331.165 405.286,335.593 402.98,344.098 409.578,339.102 416.217,343.962 413.834,335.582 	"/>
</g>
<g>
	<polygon fill="none" stroke="#FFE1E1" stroke-miterlimit="10" points="459.29,344.19 448.741,344.268 443.398,335.301 
		448.604,326.256 459.154,326.178 464.496,335.145 	"/>
	<polygon fill="none" stroke="#FFE1E1" stroke-miterlimit="10" points="443.197,341 453.824,322.852 464.453,341 	"/>
	<polygon fill="none" stroke="#FFE1E1" stroke-miterlimit="10" points="459,326.521 459,332.004 464.193,334.965 456.499,336.573 
		459.216,343.975 453.827,341.059 448.832,343.979 451.156,336.502 443.722,335.223 448.511,331.986 448.797,326.46 
		453.963,331.943 	"/>
	<polygon fill="none" stroke="#FFE1E1" stroke-miterlimit="10" points="448.511,331.986 453.824,341.059 458.938,332.004 	"/>
</g>
<g>
	<rect x="401" y="367" fill="none" stroke="#FFE1E1" stroke-miterlimit="10" width="18" height="18"/>
	<polygon fill="none" stroke="#FFE1E1" stroke-miterlimit="10" points="402.716,379.781 409.74,366.998 416.948,379.681 	"/>
	<polygon fill="none" stroke="#FFE1E1" stroke-miterlimit="10" points="406.285,385 401,379.797 401,372.188 406.285,367 
		413.682,367 419,372.188 419,379.797 413.682,385 	"/>
	<polygon fill="none" stroke="#FFE1E1" stroke-miterlimit="10" points="401.028,376.193 403.41,369.786 409.752,367.027 
		416.119,369.626 418.802,375.793 416.318,382.116 409.977,384.877 403.711,382.358 	"/>
	<polyline fill="none" stroke="#FFE1E1" stroke-miterlimit="10" points="403.41,369.786 405.727,374.301 401.028,376.193 	"/>
	<polyline fill="none" stroke="#FFE1E1" stroke-miterlimit="10" points="416.119,369.626 413.904,374.325 418.802,375.793 	"/>
	<polyline fill="none" stroke="#FFE1E1" stroke-miterlimit="10" points="403.744,382.371 409.832,379.781 416.318,382.116 	"/>
	<polygon fill="none" stroke="#FFE1E1" stroke-miterlimit="10" points="405.727,374.301 413.904,374.325 409.832,379.781 	"/>
</g>
<g>
	<polygon fill="none" stroke="#FFE1E1" stroke-miterlimit="10" points="464.486,293.342 458.998,298.67 460.275,306.213 
		453.512,302.639 446.733,306.185 448.042,298.647 442.575,293.297 450.148,292.212 453.547,285.359 456.918,292.227 	"/>
	<circle fill="none" stroke="#FFE1E1" stroke-miterlimit="10" cx="453.45" cy="296.941" r="5.672"/>
	<polygon fill="none" stroke="#FFE1E1" stroke-miterlimit="10" points="450.148,292.212 453.513,302.426 456.918,292.227 	"/>
	<polygon fill="none" stroke="#FFE1E1" stroke-miterlimit="10" points="448.027,298.61 450.148,292.212 458.729,298.782 	"/>
	<polygon fill="none" stroke="#FFE1E1" stroke-miterlimit="10" points="456.918,292.348 458.998,298.791 448.347,298.426 	"/>
	<polyline fill="none" stroke="#FFE1E1" stroke-miterlimit="10" points="448.027,298.61 453.45,302.613 458.998,298.791 	"/>
	<g>
		<polygon fill="none" stroke="#FFE1E1" stroke-miterlimit="10" points="445.767,296.111 448.931,295.295 446.477,292.977 		"/>
	</g>
	<g>
		<polygon fill="none" stroke="#FFE1E1" stroke-miterlimit="10" points="458.199,295.586 461.424,296.112 460.111,293.002 		"/>
	</g>
	<polygon fill="none" stroke="#FFE1E1" stroke-miterlimit="10" points="447.889,302.232 451,300.656 451,303.992 	"/>
	<polygon fill="none" stroke="#FFE1E1" stroke-miterlimit="10" points="458.916,302.342 456,300.865 456,303.992 	"/>
	<polygon fill="none" stroke="#FFE1E1" stroke-miterlimit="10" points="452.013,288.996 455.077,289.033 453.54,291.957 
		452.013,288.996 	"/>
</g>
<g>
	<polygon fill="none" stroke="#FFE1E1" stroke-miterlimit="10" points="499.006,345.766 493.166,339.903 493.166,331.544 
		499.006,325.682 507.365,325.682 513.25,331.544 513.25,339.903 507.365,345.766 	"/>
	<polygon fill="none" stroke="#FFE1E1" stroke-miterlimit="10" points="503.211,346.707 495.4,343.473 492.201,335.749 
		495.436,327.939 503.159,324.74 510.97,327.975 514.168,335.698 510.934,343.508 	"/>
	
		<rect x="496.003" y="328.54" transform="matrix(0.7071 -0.7071 0.7071 0.7071 -90.018 454.1079)" fill="none" stroke="#FFE1E1" stroke-miterlimit="10" width="14.364" height="14.364"/>
	<rect x="495.865" y="328.619" fill="none" stroke="#FFE1E1" stroke-miterlimit="10" width="14.447" height="14.209"/>
	<polygon fill="none" stroke="#FFE1E1" stroke-miterlimit="10" points="498.21,330.855 499.006,325.566 503.185,328.773 
		507.365,325.566 508.284,330.8 513.342,331.544 510.319,335.724 513.342,339.903 508.182,340.717 507.365,345.881 503.196,342.782 
		499.006,345.881 498.082,340.778 493.027,339.903 496.011,335.786 493.027,331.544 	"/>
	<polygon fill="none" stroke="#FFE1E1" stroke-miterlimit="10" points="503.185,328.773 503.098,342.6 496.011,335.786 	"/>
	<polyline fill="none" stroke="#FFE1E1" stroke-miterlimit="10" points="503.185,328.773 510.134,335.687 503.098,342.6 	"/>
	<polygon fill="none" stroke="#FFE1E1" stroke-miterlimit="10" points="498.21,330.855 508.182,340.717 498.21,340.813 	"/>
	<polyline fill="none" stroke="#FFE1E1" stroke-miterlimit="10" points="498.088,330.855 508.16,330.855 508.16,340.717 
		498.21,340.813 495.865,340.395 495.865,335.786 510.319,335.724 	"/>
	<line fill="none" stroke="#FFE1E1" stroke-miterlimit="10" x1="498.21" y1="340.813" x2="508.182" y2="330.855"/>
</g>
<g>
	<polygon fill="none" stroke="#FFE1E1" stroke-miterlimit="10" points="497.46,308 493.287,294.952 504.213,286.912 
		515.138,295.003 510.965,308 	"/>
	<polygon fill="none" stroke="#FFE1E1" stroke-miterlimit="10" points="509.039,307.393 499.416,307.465 494.541,299.167 
		499.291,290.797 508.914,290.726 513.787,299.023 	"/>
	<circle fill="none" stroke="#FFE1E1" stroke-miterlimit="10" cx="504.195" cy="298.828" r="4.379"/>
	<rect x="500" y="291" fill="none" stroke="#FFE1E1" stroke-miterlimit="10" width="9" height="16"/>
	<polygon fill="none" stroke="#FFE1E1" stroke-miterlimit="10" points="514.918,295.444 506.949,295.236 504.164,287.463 
		501.578,295.236 493.834,295.27 499.903,299.697 497.598,308.203 504.195,303.207 510.834,308.066 508.451,299.688 	"/>
</g>
<g>
	<polygon fill="none" stroke="#FFE1E1" stroke-miterlimit="10" points="593.29,388.719 582.741,388.796 577.398,379.829 
		582.604,370.783 593.154,370.706 598.496,379.673 	"/>
	<polygon fill="none" stroke="#FFE1E1" stroke-miterlimit="10" points="577.197,386 587.824,367.853 598.453,386 	"/>
	<polygon fill="none" stroke="#FFE1E1" stroke-miterlimit="10" points="593,371.049 593,376.531 598.193,379.492 590.499,381.102 
		593.216,388.504 587.827,385.587 582.832,388.506 585.156,381.029 577.722,379.751 582.511,376.514 582.797,370.988 
		587.963,376.471 	"/>
	<polygon fill="none" stroke="#FFE1E1" stroke-miterlimit="10" points="582.511,376.514 587.824,385.587 592.938,376.531 	"/>
</g>
<g>
	<polygon fill="none" stroke="#FFE1E1" stroke-miterlimit="10" points="514.332,373.936 508.844,379.264 510.121,386.807 
		503.357,383.232 496.58,386.778 497.889,379.241 492.422,373.891 499.994,372.807 503.393,365.953 506.765,372.82 	"/>
	<circle fill="none" stroke="#FFE1E1" stroke-miterlimit="10" cx="503.296" cy="377.535" r="5.672"/>
	<polygon fill="none" stroke="#FFE1E1" stroke-miterlimit="10" points="499.994,372.807 503.359,383.02 506.765,372.82 	"/>
	<polygon fill="none" stroke="#FFE1E1" stroke-miterlimit="10" points="497.873,379.204 499.994,372.807 508.575,379.376 	"/>
	<polygon fill="none" stroke="#FFE1E1" stroke-miterlimit="10" points="506.765,372.941 508.844,379.386 498.193,379.02 	"/>
	<polyline fill="none" stroke="#FFE1E1" stroke-miterlimit="10" points="497.873,379.204 503.296,383.207 508.844,379.386 	"/>
	<g>
		<polygon fill="none" stroke="#FFE1E1" stroke-miterlimit="10" points="495.613,376.705 498.777,375.889 496.322,373.57 		"/>
	</g>
	<g>
		<polygon fill="none" stroke="#FFE1E1" stroke-miterlimit="10" points="508.045,376.18 511.271,376.706 509.958,373.596 		"/>
	</g>
	<polygon fill="none" stroke="#FFE1E1" stroke-miterlimit="10" points="497.889,382.826 501,381.25 501,384.586 	"/>
	<polygon fill="none" stroke="#FFE1E1" stroke-miterlimit="10" points="508.916,382.937 506,381.459 506,384.586 	"/>
	<polygon fill="none" stroke="#FFE1E1" stroke-miterlimit="10" points="501.859,369.59 504.923,369.627 503.387,372.551 
		501.859,369.59 	"/>
</g>
<g>
	<polygon fill="none" stroke="#FFE1E1" stroke-miterlimit="10" points="539.852,306.794 534.014,300.932 534.014,292.572 
		539.852,286.711 548.211,286.711 554.096,292.572 554.096,300.932 548.211,306.794 	"/>
	<polygon fill="none" stroke="#FFE1E1" stroke-miterlimit="10" points="544.057,307.736 536.247,304.502 533.048,296.777 
		536.283,288.968 544.006,285.769 551.816,289.004 555.016,296.727 551.78,304.537 	"/>
	
		<rect x="536.85" y="289.57" transform="matrix(0.7072 -0.707 0.707 0.7072 -50.5084 471.5482)" fill="none" stroke="#FFE1E1" stroke-miterlimit="10" width="14.364" height="14.364"/>
	<rect x="536.713" y="289.648" fill="none" stroke="#FFE1E1" stroke-miterlimit="10" width="14.446" height="14.209"/>
	<polygon fill="none" stroke="#FFE1E1" stroke-miterlimit="10" points="539.057,291.884 539.852,286.595 544.031,289.803 
		548.211,286.595 549.131,291.828 554.188,292.572 551.166,296.752 554.188,300.932 549.028,301.746 548.211,306.91 
		544.043,303.811 539.852,306.91 538.929,301.807 533.874,300.932 536.857,296.814 533.874,292.572 	"/>
	<polygon fill="none" stroke="#FFE1E1" stroke-miterlimit="10" points="544.031,289.803 543.944,303.628 536.857,296.814 	"/>
	<polyline fill="none" stroke="#FFE1E1" stroke-miterlimit="10" points="544.031,289.803 550.98,296.715 543.944,303.628 	"/>
	<polygon fill="none" stroke="#FFE1E1" stroke-miterlimit="10" points="539.057,291.884 549.028,301.746 539.057,301.842 	"/>
	<polyline fill="none" stroke="#FFE1E1" stroke-miterlimit="10" points="538.934,291.884 549.007,291.884 549.007,301.746 
		539.057,301.842 536.713,301.424 536.713,296.814 551.166,296.752 	"/>
	<line fill="none" stroke="#FFE1E1" stroke-miterlimit="10" x1="539.057" y1="301.842" x2="549.028" y2="291.884"/>
</g>
<g>
	<polygon fill="none" stroke="#FFE1E1" stroke-miterlimit="10" points="536.842,345 532.67,331.9 543.596,323.833 554.521,331.964 
		550.347,345 	"/>
	<polygon fill="none" stroke="#FFE1E1" stroke-miterlimit="10" points="548.421,344.288 538.798,344.359 533.924,336.063 
		538.673,327.691 548.296,327.621 553.17,335.918 	"/>
	<circle fill="none" stroke="#FFE1E1" stroke-miterlimit="10" cx="543.578" cy="335.723" r="4.378"/>
	<rect x="539" y="328" fill="none" stroke="#FFE1E1" stroke-miterlimit="10" width="9" height="16"/>
	<polygon fill="none" stroke="#FFE1E1" stroke-miterlimit="10" points="554.3,332.34 546.332,332.131 543.547,324.358 
		540.96,332.131 533.216,332.165 539.286,336.593 536.98,345.098 543.578,340.102 550.217,344.962 547.834,336.582 	"/>
</g>
<g>
	<polygon fill="none" stroke="#FFE1E1" stroke-miterlimit="10" points="593.29,345.19 582.741,345.268 577.398,336.301 
		582.604,327.256 593.154,327.178 598.496,336.145 	"/>
	<polygon fill="none" stroke="#FFE1E1" stroke-miterlimit="10" points="577.197,342 587.824,323.852 598.453,342 	"/>
	<polygon fill="none" stroke="#FFE1E1" stroke-miterlimit="10" points="593,327.521 593,333.004 598.193,335.965 590.499,337.573 
		593.216,344.975 587.827,342.059 582.832,344.979 585.156,337.502 577.722,336.223 582.511,332.986 582.797,327.46 
		587.963,332.943 	"/>
	<polygon fill="none" stroke="#FFE1E1" stroke-miterlimit="10" points="582.511,332.986 587.824,342.059 592.938,333.004 	"/>
</g>
<g>
	<rect x="535" y="368" fill="none" stroke="#FFE1E1" stroke-miterlimit="10" width="18" height="18"/>
	<polygon fill="none" stroke="#FFE1E1" stroke-miterlimit="10" points="536.716,380.781 543.74,367.998 550.948,380.681 	"/>
	<polygon fill="none" stroke="#FFE1E1" stroke-miterlimit="10" points="540.285,386 535,380.797 535,373.188 540.285,368 
		547.682,368 553,373.188 553,380.797 547.682,386 	"/>
	<polygon fill="none" stroke="#FFE1E1" stroke-miterlimit="10" points="535.028,377.193 537.41,370.786 543.752,368.027 
		550.119,370.626 552.802,376.793 550.318,383.116 543.977,385.877 537.711,383.358 	"/>
	<polyline fill="none" stroke="#FFE1E1" stroke-miterlimit="10" points="537.41,370.786 539.727,375.301 535.028,377.193 	"/>
	<polyline fill="none" stroke="#FFE1E1" stroke-miterlimit="10" points="550.119,370.626 547.904,375.325 552.802,376.793 	"/>
	<polyline fill="none" stroke="#FFE1E1" stroke-miterlimit="10" points="537.744,383.371 543.832,380.781 550.318,383.116 	"/>
	<polygon fill="none" stroke="#FFE1E1" stroke-miterlimit="10" points="539.727,375.301 547.904,375.325 543.832,380.781 	"/>
</g>
<g>
	<polygon fill="none" stroke="#FFE1E1" stroke-miterlimit="10" points="598.486,294.342 592.998,299.67 594.275,307.213 
		587.512,303.639 580.733,307.185 582.042,299.647 576.575,294.297 584.148,293.212 587.547,286.359 590.918,293.227 	"/>
	<circle fill="none" stroke="#FFE1E1" stroke-miterlimit="10" cx="587.45" cy="297.941" r="5.672"/>
	<polygon fill="none" stroke="#FFE1E1" stroke-miterlimit="10" points="584.148,293.212 587.513,303.426 590.918,293.227 	"/>
	<polygon fill="none" stroke="#FFE1E1" stroke-miterlimit="10" points="582.027,299.61 584.148,293.212 592.729,299.782 	"/>
	<polygon fill="none" stroke="#FFE1E1" stroke-miterlimit="10" points="590.918,293.348 592.998,299.791 582.347,299.426 	"/>
	<polyline fill="none" stroke="#FFE1E1" stroke-miterlimit="10" points="582.027,299.61 587.45,303.613 592.998,299.791 	"/>
	<g>
		<polygon fill="none" stroke="#FFE1E1" stroke-miterlimit="10" points="579.767,297.111 582.931,296.295 580.477,293.977 		"/>
	</g>
	<g>
		<polygon fill="none" stroke="#FFE1E1" stroke-miterlimit="10" points="592.199,296.586 595.424,297.112 594.111,294.002 		"/>
	</g>
	<polygon fill="none" stroke="#FFE1E1" stroke-miterlimit="10" points="581.889,303.232 585,301.656 585,304.992 	"/>
	<polygon fill="none" stroke="#FFE1E1" stroke-miterlimit="10" points="592.916,303.342 590,301.865 590,304.992 	"/>
	<polygon fill="none" stroke="#FFE1E1" stroke-miterlimit="10" points="586.013,289.996 589.077,290.033 587.54,292.957 
		586.013,289.996 	"/>
</g>
</svg>
